<?xml version="1.0" standalone="no"?><!DOCTYPE svg PUBLIC "-//W3C//DTD SVG 1.1//EN" "http://www.w3.org/Graphics/SVG/1.1/DTD/svg11.dtd"><svg t="1777478749414" class="icon" viewBox="0 0 1024 1024" version="1.1" xmlns="http://www.w3.org/2000/svg" p-id="7054" xmlns:xlink="http://www.w3.org/1999/xlink" width="256" height="256"><path d="M832.892 489.402c-6.652-0.234-32.273 7.152-40.812 8.89-13.695 2.81-27.42 5.67-41.115 8.328-69.298 13.479-153.42 22.622-224.613 22.683-14.28 0.012-35.606-1.61-48.833-0.261-7.866 10.184-15.59 19.566-22.933 31.549-22.196 36.141-36.848 72.639-43.012 116.922-5.621 40.789-2.403 103.055 14.637 140.391 6.437 14.084 20.32 30.973 18.474 34.91-7.113 6.813-21.462 1.98-30.655-0.458-61.723-16.371-125.93-52.98-150.105-116.68-27.486-72.492 2.776-146.672 38.528-208.803 4.663-8.105 10.427-15.818 14.326-23.342-3.36-2.291-26.413-9.231-33.084-11.853-5.421-2.138-10.197-4.141-15.848-6.474-4.948-2.065-9.915-5.341-15.448-6.474-33.388 43.472-62.927 114.5-72.124 171.386-8.842 54.746 2.215 100.805 30.219 145.77 10.028 16.144 23.261 29.293 26.548 34.483-8.162 6.056-86.895 25.887-47.952 47.102 31.877 17.351 132.021 24.102 170.314 26.59 97.003 6.302 205.174 11.669 301.143 0.389 38.178-4.483 98.399-13.86 122.947-34.314 21.212-17.69 2.823-34.626-5.182-53.938-20.485-49.409 11.134-146.708 26.347-196.677 12.085-39.657 23.15-86.216 28.233-130.119zM307.601 364.367c6.812 0.431 21.446 5.298 29.681 6.986 9.169 1.892 21.704 5.359 30.938 5.847-6.924-24.033-8.489-39.666 2.031-65.933 22.172-55.299 73.877-91.755 140.563-94.815 50.309-2.311 86.757 21.131 102.974 53.914 19.292 39.047 8.397 85.261-15.495 120.04 19.105 0.304 44.219-2.906 63.538-4.971a1186.396 1186.396 0 0 0 61.554-8.285c39.182-6.289 77.867-14.405 114.573-24.406-5.809-37.809-7.562-57.695-22.311-94.131-10.942-27.091-25.429-51.289-44.772-71.67-34.818-36.702-90.162-66.583-161.148-72.738-123.759-10.722-235.018 38.736-287.514 147.061-3.572 7.394-5.509 14.352-8.658 21.339-19.411 0.265-34.903 0.704-51.353 6.824-35.395 13.196-38.855 39.317 3.08 59.583 12.873 6.22 41.485 14.851 42.319 15.355z m0 0" fill="#040000" p-id="7055"></path><path d="M598.293 390.408c-36.847 3.43-83.581 2.03-120.567-0.222-19.042-1.154-38.035-2.553-56.794-4.921-13.064-1.658-42-4.326-52.712-8.063-9.234-0.488-21.765-3.956-30.938-5.847-8.235-1.688-22.869-6.555-29.681-6.986-2.238 3.653-5.671 7.666-8.447 11.676-8.936 12.892-16.522 27.24-23.007 41.151-9.1 19.554-16.848 40.062-23.757 61.532 5.532 1.134 10.5 4.409 15.444 6.474 5.652 2.334 10.431 4.341 15.848 6.474 6.674 2.626 29.727 9.566 33.088 11.853l37.079 9.143c26.39 6.174 53.783 9.931 80.778 12.695 4.856 0.492 41.911 2.58 42.892 3.676 13.226-1.349 34.553 0.273 48.833 0.261 71.193-0.061 155.312-9.204 224.613-22.683 13.695-2.661 27.42-5.518 41.115-8.328 8.539-1.738 34.16-9.124 40.812-8.89 9.562-42.192 20.397-93.815 5.063-136.654-36.702 10.001-75.395 18.121-114.573 24.406a1188.071 1188.071 0 0 1-61.554 8.286c-19.316 2.06-44.429 5.271-63.535 4.967z m0 0" fill="#D10C18" p-id="7056"></path><path d="M463.89 276.569c-47.671 6.432-38.29 76.56 9.127 70.739 17.613-2.16 32.807-18.962 30.473-39.596-2.076-18.225-19.139-33.904-39.6-31.143z m0 0" fill="#040000" p-id="7057"></path></svg>