<?xml version="1.0" standalone="no"?><!DOCTYPE svg PUBLIC "-//W3C//DTD SVG 1.1//EN" "http://www.w3.org/Graphics/SVG/1.1/DTD/svg11.dtd"><svg t="1777478852831" class="icon" viewBox="0 0 1024 1024" version="1.1" xmlns="http://www.w3.org/2000/svg" p-id="12693" xmlns:xlink="http://www.w3.org/1999/xlink" width="256" height="256"><path d="M860.16 0H163.84A163.84 163.84 0 0 0 0 163.9936v695.9616a163.84 163.84 0 0 0 163.84 163.84h696.32a163.84 163.84 0 0 0 163.84-163.84v-6.8096s-266.24-111.0016-400.7936-175.6672a433.408 433.408 0 0 1-327.424 178.3808c-204.3392 0-273.664-178.7904-176.896-296.4992a204.8 204.8 0 0 1 112.64-63.8464c87.04-21.3504 225.792 13.3632 355.6864 56.32A711.68 711.68 0 0 0 645.12 410.8288H244.4288v-40.5504h206.4384v-72.704H200.8064v-40.6016h250.112V153.2416a17.2032 17.2032 0 0 1 17.7152-17.5104h100.9152v121.2416h247.296v40.6016h-247.296v72.6528h201.8304a825.0368 825.0368 0 0 1-85.2992 215.9104c61.44 22.1696 116.2752 43.1104 157.2352 56.8832A1094.5024 1094.5024 0 0 0 1024 695.04V164.096a163.84 163.84 0 0 0-163.84-163.84zM248.9344 556.1856a200.8064 200.8064 0 0 0-99.8912 37.0688c-78.7456 68.6592-31.6416 194.0992 127.6416 194.0992 92.5696 0 185.1392-59.1872 257.792-154.0096-103.3216-50.3296-190.976-86.4256-285.5424-77.1584z" fill="#0A7BF8" p-id="12694"></path></svg>