<?xml version="1.0" standalone="no"?><!DOCTYPE svg PUBLIC "-//W3C//DTD SVG 1.1//EN" "http://www.w3.org/Graphics/SVG/1.1/DTD/svg11.dtd"><svg t="1777477404011" class="icon" viewBox="0 0 1024 1024" version="1.1" xmlns="http://www.w3.org/2000/svg" p-id="1550" xmlns:xlink="http://www.w3.org/1999/xlink" width="256" height="256"><path d="M920.109 495.348h0.395v16.918H778.609l-6.562-16.918h148.062z m-674.32 182.274l110.899-279.989L472.25 677.622H245.789z m499.922-244.293l0.008 0.007-7.563-16.918h171.032l0.531 2.399 1.593 7.058 1.629 7.454h-167.23z m-267.82 244.293l110.906-279.989 115.582 279.989H477.891zM847.176 672l-8.449-19.726h57.14C838.68 809.059 688.293 921 511.734 921 285.996 921 103 738.004 103 512.266c0-225.738 183.004-408.742 408.734-408.742 184.563 0 340.543 122.332 391.321 290.359H728.746L620.727 141.129 507.945 425.833 389.531 143.922 180.93 682.344l94.922 118.367h482.984L847.176 672z m-59.18-137.187h132.473l-1.879 16.937H795.527l-7.531-16.937z m24.414 56.402v-0.004h0.016l-7.504-16.886h110.82l-1.773 10.711-1.028 6.179H812.41z m-50.726-118.422h-0.008l-6.59-16.91H916.75l0.77 7.059 0.914 8.891 0.156 0.96H761.684z m60.144 140.93h-0.008 86.489l-4.711 16.004h-74.262l-7.508-16.004z" fill="#A61F23" p-id="1551"></path></svg>